<svg width="837" height="663" viewBox="0 0 837 663" fill="none" xmlns="http://www.w3.org/2000/svg">
<g filter="url(#filter0_d)">
<path d="M429.714 590.949V612.177L805.474 520.43C806.37 520.212 807 519.409 807 518.488V498.831L429.714 590.949Z" fill="url(#paint0_linear)"/>
<path d="M30 421.131V441.035C30 441.837 30.4795 442.562 31.218 442.875L429.714 612.177V590.949L229.857 506.04L30 421.131Z" fill="url(#paint1_linear)"/>
<path d="M429.714 590.949L807 498.831L607.143 413.921L589.32 406.349L571.497 398.777L553.674 391.205L544.801 387.58C544.401 389.256 543.995 390.937 543.582 392.622C540.678 404.472 537.445 416.534 533.848 428.74C500.526 541.846 450.541 584.007 429.714 590.949Z" fill="url(#paint2_linear)"/>
<path d="M429.714 590.949V612.177L805.474 520.43C806.37 520.212 807 519.409 807 518.488V498.831L429.714 590.949Z" fill="url(#paint3_linear)"/>
<path d="M463.974 564.894L569.328 539.196L561.275 535.778L458.619 560.818C457.684 561.047 457.579 562.334 458.465 562.711L463.524 564.858C463.666 564.918 463.824 564.931 463.974 564.894Z" fill="#DAD0BB"/>
<path d="M442.154 553.831C441.219 554.059 441.115 555.347 442.001 555.723L447.004 557.846C447.203 557.93 447.423 557.948 447.632 557.897L566.435 528.897L558.412 525.472L442.154 553.831Z" fill="#DAD0BB"/>
<path d="M425.869 546.919C424.934 547.147 424.83 548.435 425.716 548.811L430.689 550.921C430.887 551.006 431.107 551.023 431.316 550.972L559.664 519.665L551.611 516.247L425.869 546.919Z" fill="#DAD0BB"/>
<path d="M410.658 540.463C409.723 540.691 409.618 541.979 410.504 542.355L415.496 544.473C415.694 544.557 415.915 544.575 416.124 544.524L536.221 515.217L528.168 511.799L410.658 540.463Z" fill="#DAD0BB"/>
<path d="M395.626 534.082C394.69 534.31 394.586 535.598 395.472 535.974L400.445 538.085C400.643 538.169 400.863 538.187 401.072 538.136L541.948 503.773L533.895 500.355L395.626 534.082Z" fill="#DAD0BB"/>
<path d="M377.387 528.298L385.44 531.717L511.704 500.918L503.651 497.5L377.387 528.298Z" fill="#DAD0BB"/>
<path d="M614.568 525.644L719.922 499.946L711.869 496.528L609.212 521.568C608.277 521.797 608.173 523.084 609.059 523.461L614.118 525.608C614.26 525.668 614.418 525.681 614.568 525.644Z" fill="#DAD0BB"/>
<path d="M592.748 514.581C591.813 514.809 591.709 516.097 592.595 516.473L597.598 518.596C597.796 518.68 598.017 518.698 598.226 518.647L717.028 489.647L709.006 486.222L592.748 514.581Z" fill="#DAD0BB"/>
<path d="M576.463 507.669C575.528 507.897 575.423 509.185 576.309 509.561L581.282 511.671C581.481 511.756 581.701 511.773 581.91 511.722L710.258 480.415L702.205 476.997L576.463 507.669Z" fill="#DAD0BB"/>
<path d="M561.252 501.213C560.317 501.441 560.212 502.729 561.098 503.105L566.09 505.223C566.288 505.307 566.508 505.325 566.718 505.274L686.815 475.967L678.762 472.549L561.252 501.213Z" fill="#DAD0BB"/>
<path d="M546.219 494.832C545.284 495.06 545.18 496.348 546.066 496.724L551.038 498.835C551.237 498.919 551.457 498.937 551.666 498.886L692.541 464.523L684.488 461.105L546.219 494.832Z" fill="#DAD0BB"/>
<path d="M527.98 489.048L536.034 492.467L662.298 461.668L654.244 458.25L527.98 489.048Z" fill="#DAD0BB"/>
<path d="M520.045 479.985L625.399 454.287L617.346 450.869L514.69 475.909C513.755 476.137 513.65 477.425 514.536 477.801L519.596 479.949C519.738 480.009 519.895 480.022 520.045 479.985Z" fill="#DAD0BB"/>
<path d="M498.226 468.921C497.291 469.149 497.186 470.437 498.072 470.813L503.076 472.937C503.274 473.021 503.494 473.039 503.703 472.988L622.506 443.988L614.483 440.563L498.226 468.921Z" fill="#DAD0BB"/>
<path d="M481.941 462.01C481.006 462.238 480.901 463.526 481.787 463.902L486.76 466.012C486.958 466.096 487.178 466.114 487.388 466.063L615.736 434.756L607.683 431.338L481.941 462.01Z" fill="#DAD0BB"/>
<path d="M466.729 455.553C465.794 455.781 465.69 457.069 466.576 457.445L471.567 459.564C471.766 459.648 471.986 459.666 472.195 459.615L592.292 430.308L584.239 426.89L466.729 455.553Z" fill="#DAD0BB"/>
<path d="M451.697 449.173C450.762 449.401 450.657 450.689 451.543 451.065L456.516 453.176C456.714 453.26 456.934 453.278 457.144 453.227L598.019 418.864L589.966 415.446L451.697 449.173Z" fill="#DAD0BB"/>
<path d="M433.458 443.389L441.511 446.807L567.775 416.009L559.722 412.591L433.458 443.389Z" fill="#DAD0BB"/>
<path fill-rule="evenodd" clip-rule="evenodd" d="M229.857 506.04L429.714 590.949C450.541 584.007 500.526 541.846 533.848 428.74C537.956 414.798 541.591 401.045 544.801 387.58L544.806 387.556C567.357 292.944 568.946 212.495 566.386 179.986C566.327 179.247 565.863 178.637 565.181 178.347L366.433 93.9092L169.631 10.2982C168.245 9.70903 166.725 10.7944 166.828 12.2975C169.494 51.0079 166.494 149.085 134.134 258.922C100.811 372.027 50.8268 414.188 30 421.131L229.857 506.04Z" fill="url(#paint4_linear)"/>
<path d="M30 421.131V441.035C30 441.837 30.4795 442.562 31.218 442.875L429.714 612.177V590.949L229.857 506.04L30 421.131Z" fill="url(#paint5_linear)"/>
<mask id="mask0" mask-type="alpha" maskUnits="userSpaceOnUse" x="242" y="283" width="127" height="85">
<path fill-rule="evenodd" clip-rule="evenodd" d="M281.677 316.158C280.264 331.102 289.177 345.428 301.138 348.529C313.1 351.63 324.23 342.5 325.643 327.556C326.338 320.212 324.527 312.978 321.066 307.158L333.187 297.713C338.968 307.434 341.943 319.445 340.804 331.486C338.503 355.824 320.151 371.676 299.457 366.311C278.763 360.946 264.215 336.565 266.516 312.227C267.655 300.186 272.703 290.255 280.002 283.925L289.8 299.053C285.431 302.842 282.371 308.813 281.677 316.158Z" fill="black"/>
<path d="M312.788 316.123L319.426 322.081C318.698 312.174 306.366 293.009 300.292 284.665L297.688 312.209L312.788 316.123Z" fill="black"/>
<path fill-rule="evenodd" clip-rule="evenodd" d="M270.12 325.622L242.99 301.67L271.06 315.673L270.12 325.622ZM340.58 332.8C340.264 335.926 339.556 338.814 339.241 339.867L368.404 366.042L340.58 332.8Z" fill="black"/>
<path d="M266.639 313.467C266.412 316.538 266.45 319.605 266.731 322.63L308.672 359.66L309.7 348.782C307.006 349.402 304.131 349.38 301.207 348.622C290.552 345.859 282.328 334.123 281.72 320.99L266.639 313.467Z" fill="black"/>
<path d="M311.808 326.495L312.788 316.123L319.429 322.084C318.402 313.616 312.77 306.106 305.407 304.197C302.975 303.566 300.61 303.613 298.442 304.231L296.764 321.975C299.236 323.797 301.976 325.154 304.901 325.912C307.264 326.525 309.585 326.704 311.808 326.495Z" fill="black"/>
<path d="M311.458 330.19C309.226 330.305 306.914 330.075 304.565 329.466C301.664 328.714 298.923 327.44 296.408 325.746L296.176 328.202L287.916 324.081C289.087 332.362 294.648 339.639 301.879 341.514C304.924 342.303 307.864 342.03 310.445 340.905L311.458 330.19Z" fill="black"/>
</mask>
<g mask="url(#mask0)">
<rect x="241.472" y="380.607" width="113.18" height="146.47" transform="rotate(-89.1114 241.472 380.607)" fill="#FDBB11"/>
</g>
<mask id="mask1" mask-type="alpha" maskUnits="userSpaceOnUse" x="240" y="279" width="127" height="84">
<path fill-rule="evenodd" clip-rule="evenodd" d="M279.429 311.778C278.016 326.722 286.929 341.048 298.89 344.149C310.852 347.25 321.982 338.12 323.395 323.176C324.09 315.832 322.279 308.598 318.818 302.778L330.939 293.333C336.72 303.054 339.695 315.065 338.556 327.106C336.255 351.444 317.903 367.296 297.209 361.931C276.515 356.566 261.967 332.185 264.268 307.847C265.407 295.806 270.455 285.875 277.754 279.545L287.552 294.673C283.183 298.462 280.123 304.434 279.429 311.778Z" fill="black"/>
<path d="M310.54 311.744L317.178 317.701C316.45 307.794 304.118 288.63 298.044 280.285L295.44 307.829L310.54 311.744Z" fill="black"/>
<path fill-rule="evenodd" clip-rule="evenodd" d="M267.872 321.242L240.742 297.29L268.812 311.293L267.872 321.242ZM338.332 328.42C338.016 331.546 337.308 334.434 336.993 335.487L366.155 361.662L338.332 328.42Z" fill="black"/>
<path d="M264.391 309.087C264.164 312.158 264.202 315.226 264.483 318.25L306.424 355.28L307.452 344.402C304.758 345.022 301.883 345 298.959 344.242C288.304 341.479 280.08 329.743 279.472 316.61L264.391 309.087Z" fill="black"/>
<path d="M309.559 322.115L310.54 311.744L317.181 317.705C316.154 309.236 310.522 301.726 303.159 299.817C300.727 299.187 298.362 299.234 296.194 299.851L294.516 317.595C296.988 319.417 299.728 320.774 302.653 321.532C305.016 322.145 307.336 322.324 309.559 322.115Z" fill="black"/>
<path d="M309.21 325.81C306.978 325.925 304.666 325.695 302.317 325.086C299.416 324.334 296.675 323.06 294.16 321.366L293.928 323.822L285.668 319.701C286.839 327.982 292.4 335.259 299.631 337.134C302.676 337.923 305.616 337.65 308.197 336.525L309.21 325.81Z" fill="black"/>
</mask>
<g mask="url(#mask1)">
<rect x="239.224" y="376.227" width="113.18" height="146.47" transform="rotate(-89.1114 239.224 376.227)" fill="white"/>
</g>
</g>
<defs>
<filter id="filter0_d" x="0" y="0.135254" width="837" height="662.042" filterUnits="userSpaceOnUse" color-interpolation-filters="sRGB">
<feFlood flood-opacity="0" result="BackgroundImageFix"/>
<feColorMatrix in="SourceAlpha" type="matrix" values="0 0 0 0 0 0 0 0 0 0 0 0 0 0 0 0 0 0 127 0"/>
<feOffset dy="20"/>
<feGaussianBlur stdDeviation="15"/>
<feColorMatrix type="matrix" values="0 0 0 0 0 0 0 0 0 0 0 0 0 0 0 0 0 0 0.15 0"/>
<feBlend mode="normal" in2="BackgroundImageFix" result="effect1_dropShadow"/>
<feBlend mode="normal" in="SourceGraphic" in2="effect1_dropShadow" result="shape"/>
</filter>
<linearGradient id="paint0_linear" x1="517.427" y1="445.161" x2="549.068" y2="582.538" gradientUnits="userSpaceOnUse">
<stop stop-color="#ECE1CC"/>
<stop offset="1" stop-color="white"/>
</linearGradient>
<linearGradient id="paint1_linear" x1="517.427" y1="445.161" x2="549.068" y2="582.538" gradientUnits="userSpaceOnUse">
<stop stop-color="#ECE1CC"/>
<stop offset="1" stop-color="white"/>
</linearGradient>
<linearGradient id="paint2_linear" x1="517.427" y1="445.161" x2="549.068" y2="582.538" gradientUnits="userSpaceOnUse">
<stop stop-color="#ECE1CC"/>
<stop offset="1" stop-color="white"/>
</linearGradient>
<linearGradient id="paint3_linear" x1="233.061" y1="463.185" x2="791.205" y2="553.828" gradientUnits="userSpaceOnUse">
<stop offset="0.011732" stop-color="#FFB800"/>
<stop offset="1" stop-color="#EEA200"/>
</linearGradient>
<linearGradient id="paint4_linear" x1="194.691" y1="149.005" x2="704.855" y2="471.778" gradientUnits="userSpaceOnUse">
<stop offset="0.011732" stop-color="#FFD100"/>
<stop offset="1" stop-color="#FFC548"/>
</linearGradient>
<linearGradient id="paint5_linear" x1="158.165" y1="397.901" x2="567.54" y2="620.201" gradientUnits="userSpaceOnUse">
<stop offset="0.011732" stop-color="#FFB800"/>
<stop offset="1" stop-color="#EEA200"/>
</linearGradient>
</defs>
</svg>
