<svg width="990" height="733" viewBox="0 0 990 733" fill="none" xmlns="http://www.w3.org/2000/svg">
<path d="M890 60C890 26.8629 863.137 0 830 0H-60V642H830C863.137 642 890 615.137 890 582V60Z" fill="#F2F2F2"/>
<g filter="url(#filter0_d)">
<path d="M582.714 660.949V682.177L958.474 590.43C959.37 590.212 960 589.409 960 588.488V568.831L582.714 660.949Z" fill="url(#paint0_linear)"/>
<path d="M183 491.131V511.035C183 511.837 183.479 512.562 184.218 512.875L582.714 682.177V660.949L382.857 576.04L183 491.131Z" fill="url(#paint1_linear)"/>
<path d="M582.714 660.949L960 568.831L760.143 483.921L742.32 476.349L724.497 468.777L706.674 461.205L697.801 457.58C697.401 459.256 696.995 460.937 696.582 462.622C693.678 474.472 690.445 486.534 686.848 498.74C653.526 611.846 603.541 654.007 582.714 660.949Z" fill="url(#paint2_linear)"/>
<path d="M582.714 660.949V682.177L958.474 590.43C959.37 590.212 960 589.409 960 588.488V568.831L582.714 660.949Z" fill="url(#paint3_linear)"/>
<path d="M616.974 634.894L722.328 609.196L714.275 605.778L611.619 630.818C610.684 631.047 610.579 632.334 611.465 632.711L616.524 634.858C616.666 634.918 616.824 634.931 616.974 634.894Z" fill="#DAD0BB"/>
<path d="M595.154 623.831C594.219 624.059 594.115 625.347 595.001 625.723L600.004 627.846C600.203 627.93 600.423 627.948 600.632 627.897L719.435 598.897L711.412 595.472L595.154 623.831Z" fill="#DAD0BB"/>
<path d="M578.869 616.919C577.934 617.147 577.83 618.435 578.716 618.811L583.689 620.921C583.887 621.006 584.107 621.023 584.316 620.972L712.664 589.665L704.611 586.247L578.869 616.919Z" fill="#DAD0BB"/>
<path d="M563.658 610.463C562.723 610.691 562.618 611.979 563.504 612.355L568.496 614.473C568.694 614.557 568.915 614.575 569.124 614.524L689.221 585.217L681.168 581.799L563.658 610.463Z" fill="#DAD0BB"/>
<path d="M548.626 604.082C547.69 604.31 547.586 605.598 548.472 605.974L553.445 608.085C553.643 608.169 553.863 608.187 554.072 608.136L694.948 573.773L686.895 570.355L548.626 604.082Z" fill="#DAD0BB"/>
<path d="M530.387 598.298L538.44 601.717L664.704 570.918L656.651 567.5L530.387 598.298Z" fill="#DAD0BB"/>
<path d="M767.568 595.644L872.922 569.946L864.869 566.528L762.212 591.568C761.277 591.797 761.173 593.084 762.059 593.461L767.118 595.608C767.26 595.668 767.418 595.681 767.568 595.644Z" fill="#DAD0BB"/>
<path d="M745.748 584.581C744.813 584.809 744.709 586.097 745.595 586.473L750.598 588.596C750.796 588.68 751.017 588.698 751.226 588.647L870.028 559.647L862.006 556.222L745.748 584.581Z" fill="#DAD0BB"/>
<path d="M729.463 577.669C728.528 577.897 728.423 579.185 729.309 579.561L734.282 581.671C734.481 581.756 734.701 581.773 734.91 581.722L863.258 550.415L855.205 546.997L729.463 577.669Z" fill="#DAD0BB"/>
<path d="M714.252 571.213C713.317 571.441 713.212 572.729 714.098 573.105L719.09 575.223C719.288 575.307 719.508 575.325 719.718 575.274L839.815 545.967L831.762 542.549L714.252 571.213Z" fill="#DAD0BB"/>
<path d="M699.219 564.832C698.284 565.06 698.18 566.348 699.066 566.724L704.038 568.835C704.237 568.919 704.457 568.937 704.666 568.886L845.541 534.523L837.488 531.105L699.219 564.832Z" fill="#DAD0BB"/>
<path d="M680.98 559.048L689.034 562.467L815.298 531.668L807.244 528.25L680.98 559.048Z" fill="#DAD0BB"/>
<path d="M673.045 549.985L778.399 524.287L770.346 520.869L667.69 545.909C666.755 546.137 666.65 547.425 667.536 547.801L672.596 549.949C672.738 550.009 672.895 550.022 673.045 549.985Z" fill="#DAD0BB"/>
<path d="M651.226 538.921C650.291 539.149 650.186 540.437 651.072 540.813L656.076 542.937C656.274 543.021 656.494 543.039 656.703 542.988L775.506 513.988L767.483 510.563L651.226 538.921Z" fill="#DAD0BB"/>
<path d="M634.941 532.01C634.006 532.238 633.901 533.526 634.787 533.902L639.76 536.012C639.958 536.096 640.178 536.114 640.388 536.063L768.736 504.756L760.683 501.338L634.941 532.01Z" fill="#DAD0BB"/>
<path d="M619.729 525.553C618.794 525.781 618.69 527.069 619.576 527.445L624.567 529.564C624.766 529.648 624.986 529.666 625.195 529.615L745.292 500.308L737.239 496.89L619.729 525.553Z" fill="#DAD0BB"/>
<path d="M604.697 519.173C603.762 519.401 603.657 520.689 604.543 521.065L609.516 523.176C609.714 523.26 609.934 523.278 610.144 523.227L751.019 488.864L742.966 485.446L604.697 519.173Z" fill="#DAD0BB"/>
<path d="M586.458 513.389L594.511 516.807L720.775 486.009L712.722 482.591L586.458 513.389Z" fill="#DAD0BB"/>
<path fill-rule="evenodd" clip-rule="evenodd" d="M382.857 576.04L582.714 660.949C603.541 654.007 653.526 611.846 686.848 498.74C690.956 484.798 694.591 471.045 697.801 457.58L697.806 457.556C720.357 362.944 721.946 282.495 719.386 249.986C719.327 249.247 718.863 248.637 718.181 248.347L519.433 163.909L322.631 80.2982C321.245 79.709 319.725 80.7944 319.828 82.2975C322.494 121.008 319.494 219.085 287.134 328.922C253.811 442.027 203.827 484.188 183 491.131L382.857 576.04Z" fill="url(#paint4_linear)"/>
<path d="M183 491.131V511.035C183 511.837 183.479 512.562 184.218 512.875L582.714 682.177V660.949L382.857 576.04L183 491.131Z" fill="url(#paint5_linear)"/>
<mask id="mask0" mask-type="alpha" maskUnits="userSpaceOnUse" x="395" y="353" width="127" height="85">
<path fill-rule="evenodd" clip-rule="evenodd" d="M434.677 386.158C433.264 401.102 442.177 415.428 454.138 418.529C466.1 421.63 477.23 412.5 478.643 397.556C479.338 390.212 477.527 382.978 474.066 377.158L486.187 367.713C491.968 377.434 494.943 389.445 493.804 401.486C491.503 425.824 473.151 441.676 452.457 436.311C431.763 430.946 417.215 406.565 419.516 382.227C420.655 370.186 425.703 360.255 433.002 353.925L442.8 369.053C438.431 372.842 435.371 378.813 434.677 386.158Z" fill="black"/>
<path d="M465.788 386.123L472.426 392.081C471.698 382.174 459.366 363.009 453.292 354.665L450.688 382.209L465.788 386.123Z" fill="black"/>
<path fill-rule="evenodd" clip-rule="evenodd" d="M423.12 395.622L395.99 371.67L424.06 385.673L423.12 395.622ZM493.58 402.8C493.264 405.926 492.556 408.814 492.241 409.867L521.404 436.042L493.58 402.8Z" fill="black"/>
<path d="M419.639 383.467C419.412 386.538 419.45 389.605 419.731 392.63L461.672 429.66L462.7 418.782C460.006 419.402 457.131 419.38 454.207 418.622C443.552 415.859 435.328 404.123 434.72 390.99L419.639 383.467Z" fill="black"/>
<path d="M464.808 396.495L465.788 386.123L472.429 392.084C471.402 383.616 465.77 376.106 458.407 374.197C455.975 373.566 453.61 373.613 451.442 374.231L449.764 391.975C452.236 393.797 454.976 395.154 457.901 395.912C460.264 396.525 462.585 396.704 464.808 396.495Z" fill="black"/>
<path d="M464.458 400.19C462.226 400.305 459.914 400.075 457.565 399.466C454.664 398.714 451.923 397.44 449.408 395.746L449.176 398.202L440.916 394.081C442.087 402.362 447.648 409.639 454.879 411.514C457.924 412.303 460.864 412.03 463.445 410.905L464.458 400.19Z" fill="black"/>
</mask>
<g mask="url(#mask0)">
<rect x="394.472" y="450.607" width="113.18" height="146.47" transform="rotate(-89.1114 394.472 450.607)" fill="#FDBB11"/>
</g>
<mask id="mask1" mask-type="alpha" maskUnits="userSpaceOnUse" x="393" y="349" width="127" height="84">
<path fill-rule="evenodd" clip-rule="evenodd" d="M432.429 381.778C431.016 396.722 439.929 411.048 451.89 414.149C463.852 417.25 474.982 408.12 476.395 393.176C477.09 385.832 475.279 378.598 471.818 372.778L483.939 363.333C489.72 373.054 492.695 385.065 491.556 397.106C489.255 421.444 470.903 437.296 450.209 431.931C429.515 426.566 414.967 402.185 417.268 377.847C418.407 365.806 423.455 355.875 430.754 349.545L440.552 364.673C436.183 368.462 433.123 374.434 432.429 381.778Z" fill="black"/>
<path d="M463.54 381.744L470.178 387.701C469.45 377.794 457.118 358.63 451.044 350.285L448.44 377.829L463.54 381.744Z" fill="black"/>
<path fill-rule="evenodd" clip-rule="evenodd" d="M420.872 391.242L393.742 367.29L421.812 381.293L420.872 391.242ZM491.332 398.42C491.016 401.546 490.308 404.434 489.993 405.487L519.155 431.662L491.332 398.42Z" fill="black"/>
<path d="M417.391 379.087C417.164 382.158 417.202 385.226 417.483 388.25L459.424 425.28L460.452 414.402C457.758 415.022 454.883 415 451.959 414.242C441.304 411.479 433.08 399.743 432.472 386.61L417.391 379.087Z" fill="black"/>
<path d="M462.559 392.115L463.54 381.744L470.181 387.705C469.154 379.236 463.522 371.726 456.159 369.817C453.727 369.187 451.362 369.234 449.194 369.851L447.516 387.595C449.988 389.417 452.728 390.774 455.653 391.532C458.016 392.145 460.336 392.324 462.559 392.115Z" fill="black"/>
<path d="M462.21 395.81C459.978 395.925 457.666 395.695 455.317 395.086C452.416 394.334 449.675 393.06 447.16 391.366L446.928 393.822L438.668 389.701C439.839 397.982 445.4 405.259 452.631 407.134C455.676 407.923 458.616 407.65 461.197 406.525L462.21 395.81Z" fill="black"/>
</mask>
<g mask="url(#mask1)">
<rect x="392.224" y="446.227" width="113.18" height="146.47" transform="rotate(-89.1114 392.224 446.227)" fill="white"/>
</g>
</g>
<defs>
<filter id="filter0_d" x="153" y="70.1353" width="837" height="662.042" filterUnits="userSpaceOnUse" color-interpolation-filters="sRGB">
<feFlood flood-opacity="0" result="BackgroundImageFix"/>
<feColorMatrix in="SourceAlpha" type="matrix" values="0 0 0 0 0 0 0 0 0 0 0 0 0 0 0 0 0 0 127 0"/>
<feOffset dy="20"/>
<feGaussianBlur stdDeviation="15"/>
<feColorMatrix type="matrix" values="0 0 0 0 0 0 0 0 0 0 0 0 0 0 0 0 0 0 0.15 0"/>
<feBlend mode="normal" in2="BackgroundImageFix" result="effect1_dropShadow"/>
<feBlend mode="normal" in="SourceGraphic" in2="effect1_dropShadow" result="shape"/>
</filter>
<linearGradient id="paint0_linear" x1="670.427" y1="515.161" x2="702.068" y2="652.538" gradientUnits="userSpaceOnUse">
<stop stop-color="#ECE1CC"/>
<stop offset="1" stop-color="white"/>
</linearGradient>
<linearGradient id="paint1_linear" x1="670.427" y1="515.161" x2="702.068" y2="652.538" gradientUnits="userSpaceOnUse">
<stop stop-color="#ECE1CC"/>
<stop offset="1" stop-color="white"/>
</linearGradient>
<linearGradient id="paint2_linear" x1="670.427" y1="515.161" x2="702.068" y2="652.538" gradientUnits="userSpaceOnUse">
<stop stop-color="#ECE1CC"/>
<stop offset="1" stop-color="white"/>
</linearGradient>
<linearGradient id="paint3_linear" x1="386.061" y1="533.185" x2="944.205" y2="623.828" gradientUnits="userSpaceOnUse">
<stop offset="0.011732" stop-color="#FFB800"/>
<stop offset="1" stop-color="#EEA200"/>
</linearGradient>
<linearGradient id="paint4_linear" x1="347.691" y1="219.005" x2="857.855" y2="541.778" gradientUnits="userSpaceOnUse">
<stop offset="0.011732" stop-color="#FFD100"/>
<stop offset="1" stop-color="#FFC548"/>
</linearGradient>
<linearGradient id="paint5_linear" x1="311.165" y1="467.901" x2="720.54" y2="690.201" gradientUnits="userSpaceOnUse">
<stop offset="0.011732" stop-color="#FFB800"/>
<stop offset="1" stop-color="#EEA200"/>
</linearGradient>
</defs>
</svg>
