<svg width="950" height="802" viewBox="0 0 950 802" fill="none" xmlns="http://www.w3.org/2000/svg">
<path d="M0 60C0 26.8629 26.8629 0 60 0H950V642H60C26.8629 642 0 615.137 0 582V60Z" fill="#F2F2F2"/>
<g clip-path="url(#clip0)">
<g filter="url(#filter0_f)">
<ellipse cx="533.79" cy="576.512" rx="293" ry="139.5" transform="rotate(-19.5519 533.79 576.512)" fill="#1C1C1C" fill-opacity="0.2"/>
</g>
<ellipse rx="281.456" ry="301.128" transform="matrix(0.942599 0.333926 -0.504981 0.86313 402.228 438.898)" fill="#C4C4C4"/>
<ellipse rx="281.456" ry="301.128" transform="matrix(0.942599 0.333926 -0.504981 0.86313 385.364 428.898)" fill="url(#paint0_linear)"/>
<path d="M639.418 521.66C561.571 654.718 391.727 720.822 261.941 674.844C132.155 628.866 84.6987 485.781 162.545 352.723C240.392 219.665 410.236 153.561 540.022 199.539C669.808 245.517 717.264 388.602 639.418 521.66Z" stroke="url(#paint1_linear)" stroke-width="57"/>
<path d="M624.664 513.366C547.699 644.918 378.56 710.266 248.556 664.211C118.552 618.155 70.8267 475.981 147.792 344.429C224.757 212.878 393.896 147.529 523.9 193.585C653.904 239.64 701.63 381.814 624.664 513.366Z" stroke="url(#paint2_linear)" stroke-width="57"/>
<path fill-rule="evenodd" clip-rule="evenodd" d="M415.505 374.803C378.315 366.95 339.711 385.253 328.47 414.453C317.23 443.652 336.997 474.279 374.186 482.132C392.462 485.991 411.182 483.515 426.817 476.482L447.092 509.692C420.975 521.441 389.903 525.469 359.938 519.142C299.373 506.354 264.773 455.627 284.22 405.109C303.668 354.592 369.187 325.005 429.753 337.792C459.717 344.119 483.249 359.676 497.074 379.858L456.199 400.157C447.923 388.076 433.781 378.661 415.505 374.803Z" fill="#E8B72D"/>
<path d="M406.644 453.079L400.5 458.528L389.746 468.065C414.879 469.082 466.639 443.571 489.377 430.689L474 427.442L420.835 416.217L406.644 453.079Z" fill="#E8B72D"/>
<path fill-rule="evenodd" clip-rule="evenodd" d="M395.019 343.006L434 307.861L463.078 281.644L419.778 348.234L395.019 343.006ZM356.698 518.2C348.924 516.507 341.863 513.894 339.305 512.799L309.761 539L265.068 578.636L356.698 518.2Z" fill="#E8B72D"/>
<path d="M426.598 337.745C418.937 336.29 411.21 335.503 403.52 335.341L298.303 430.204L325.372 435.919C324.588 428.963 325.47 421.737 328.218 414.598C338.231 388.587 370.122 371.274 403.335 373.52L426.598 337.745Z" fill="#E8B72D"/>
<path d="M380.833 447.63L406.644 453.079L400.5 458.528L389.738 468.072C411.337 467.923 431.851 455.914 438.77 437.94C441.056 432.004 441.618 426.041 440.688 420.409L396.532 411.085C391.236 416.78 387.035 423.282 384.286 430.422C382.927 433.953 381.98 437.491 381.425 441C381.073 443.224 380.877 445.437 380.833 447.63Z" fill="#E8B72D"/>
<path d="M371.638 445.688C371.991 440.039 373.234 434.29 375.442 428.555C378.169 421.472 382.162 414.945 387.146 409.104L381.036 407.814L393.777 388.22C389.079 388.345 384.444 389.028 380 390.208C364.418 394.347 351.194 404.599 345.906 418.333C344.345 422.388 343.588 426.456 343.562 430.422C343.54 433.726 344.024 436.96 344.973 440.058L371.638 445.688Z" fill="#E8B72D"/>
<path d="M463.078 281.644L456 277.5L434 307.861L463.078 281.644Z" fill="#E8B72D"/>
<path d="M258.5 574L265.068 578.636L309.761 539L305.5 539L284 555L258.5 574Z" fill="#E8B72D"/>
<path d="M383.5 463.5L389.746 468.065L400.5 458.528L397 458L383.5 463.5Z" fill="#E8B72D"/>
<path d="M489.377 430.689L482.5 426.5L472.5 426.5L474 427.442L489.377 430.689Z" fill="#E8B72D"/>
<path d="M393.777 388.22L387.146 384L379 387.5L380 390.208C384.444 389.028 389.079 388.345 393.777 388.22Z" fill="#E8B72D"/>
<path d="M338.5 435.919L344.973 440.058C344.024 436.96 343.54 433.726 343.562 430.422L339.5 431.5L338.5 435.919Z" fill="#E8B72D"/>
<path d="M374.186 443L380.833 447.63C380.877 445.437 381.073 443.224 381.425 441L381.036 440.058L377 440.058L374.186 443Z" fill="#E8B72D"/>
<mask id="mask0" mask-type="alpha" maskUnits="userSpaceOnUse" x="258" y="277" width="233" height="298">
<path fill-rule="evenodd" clip-rule="evenodd" d="M408.77 370.367C371.581 362.515 332.977 380.818 321.736 410.017C310.495 439.217 330.262 469.844 367.452 477.697C385.728 481.555 404.447 479.08 420.082 472.047L440.357 505.257C414.24 517.005 383.168 521.033 353.204 514.707C292.639 501.919 258.038 451.191 277.486 400.674C296.933 350.157 362.453 320.569 423.018 333.357C452.982 339.684 476.514 355.241 490.339 375.423L449.465 395.722C441.189 383.64 427.046 374.226 408.77 370.367Z" fill="black"/>
<path d="M399.909 448.644L383.012 463.63C408.145 464.646 459.904 439.136 482.642 426.254L414.1 411.782L399.909 448.644Z" fill="black"/>
<path fill-rule="evenodd" clip-rule="evenodd" d="M388.284 338.571L456.343 277.209L413.043 343.798L388.284 338.571ZM349.963 513.765C342.19 512.071 335.129 509.459 332.57 508.364L258.334 574.201L349.963 513.765Z" fill="black"/>
<path d="M419.864 333.31C412.202 331.855 404.475 331.068 396.785 330.906L291.568 425.769L318.638 431.484C317.854 424.528 318.735 417.302 321.483 410.163C331.497 384.152 363.387 366.839 396.601 369.085L419.864 333.31Z" fill="black"/>
<path d="M374.099 443.194L399.909 448.644L383.003 463.637C404.602 463.488 425.116 451.478 432.036 433.505C434.321 427.569 434.883 421.606 433.953 415.973L389.797 406.65C384.502 412.345 380.3 418.847 377.551 425.987C375.331 431.756 374.212 437.542 374.099 443.194Z" fill="black"/>
<path d="M364.904 441.253C365.257 435.604 366.499 429.854 368.707 424.12C371.434 417.037 375.427 410.51 380.411 404.668L374.301 403.378L387.042 383.785C365.873 384.348 345.967 396.247 339.172 413.897C336.31 421.331 336.151 428.806 338.239 435.623L364.904 441.253Z" fill="black"/>
</mask>
<g mask="url(#mask0)">
<rect x="258.196" y="250.686" width="286.583" height="370.878" transform="rotate(7.40998 258.196 250.686)" fill="white"/>
</g>
</g>
<defs>
<filter id="filter0_f" x="151" y="287" width="765.581" height="579.024" filterUnits="userSpaceOnUse" color-interpolation-filters="sRGB">
<feFlood flood-opacity="0" result="BackgroundImageFix"/>
<feBlend mode="normal" in="SourceGraphic" in2="BackgroundImageFix" result="shape"/>
<feGaussianBlur stdDeviation="30" result="effect1_foregroundBlur"/>
</filter>
<linearGradient id="paint0_linear" x1="119.313" y1="139.792" x2="546.775" y2="336.023" gradientUnits="userSpaceOnUse">
<stop offset="0.011732" stop-color="#FFD100"/>
<stop offset="1" stop-color="#FFC548"/>
</linearGradient>
<linearGradient id="paint1_linear" x1="249" y1="264.5" x2="508.507" y2="578.389" gradientUnits="userSpaceOnUse">
<stop stop-color="#E9C000"/>
<stop offset="1" stop-color="#D89200"/>
</linearGradient>
<linearGradient id="paint2_linear" x1="278" y1="165.5" x2="622.674" y2="624.107" gradientUnits="userSpaceOnUse">
<stop stop-color="#FFD600"/>
<stop offset="1" stop-color="#FFA800"/>
</linearGradient>
<clipPath id="clip0">
<rect width="791" height="650" fill="white" transform="translate(78 152)"/>
</clipPath>
</defs>
</svg>
