<svg width="333" height="284" viewBox="0 0 333 284" fill="none" xmlns="http://www.w3.org/2000/svg">
<g filter="url(#filter0_f)">
<ellipse cx="190.415" cy="168.782" rx="98.6083" ry="46.9483" transform="rotate(-19.5519 190.415 168.782)" fill="#1C1C1C" fill-opacity="0.2"/>
</g>
<ellipse rx="94.7232" ry="101.344" transform="matrix(0.942599 0.333926 -0.504981 0.86313 146.138 122.469)" fill="#C4C4C4"/>
<ellipse rx="94.7232" ry="101.344" transform="matrix(0.942599 0.333926 -0.504981 0.86313 140.463 119.103)" fill="url(#paint0_linear)"/>
<path d="M225.579 150.186C199.478 194.797 142.57 216.912 99.1312 201.523C55.6919 186.134 39.7583 138.215 65.8586 93.6032C91.9589 48.9916 148.867 26.8769 192.306 42.2657C235.745 57.6545 251.679 105.574 225.579 150.186Z" stroke="url(#paint1_linear)" stroke-width="20"/>
<path d="M220.613 147.394C194.812 191.496 138.142 213.36 94.6266 197.945C51.1109 182.529 35.0915 134.913 60.8934 90.812C86.6953 46.7105 143.364 24.8459 186.88 40.2618C230.396 55.6777 246.415 103.293 220.613 147.394Z" stroke="url(#paint2_linear)" stroke-width="20"/>
<path fill-rule="evenodd" clip-rule="evenodd" d="M152.307 102.715C141.685 100.329 130.659 105.889 127.449 114.758C124.238 123.627 129.884 132.93 140.506 135.315C145.726 136.488 151.072 135.736 155.538 133.599L161.329 143.687C153.869 147.255 144.995 148.479 136.436 146.557C119.138 142.673 109.255 127.265 114.81 111.92C120.365 96.5758 139.078 87.5886 156.376 91.4728C164.935 93.3946 171.656 98.12 175.605 104.25L163.93 110.416C161.566 106.746 157.527 103.887 152.307 102.715Z" fill="#E8B72D"/>
<path d="M149.776 126.491L148.021 128.146L144.95 131.043C152.128 131.352 166.912 123.603 173.406 119.69L169.014 118.704L153.829 115.294L149.776 126.491Z" fill="#E8B72D"/>
<path fill-rule="evenodd" clip-rule="evenodd" d="M146.456 93.0564L157.589 82.3812L165.895 74.418L153.528 94.6443L146.456 93.0564ZM135.511 146.271C133.291 145.757 131.274 144.963 130.543 144.631L122.105 152.589L109.34 164.628L135.511 146.271Z" fill="#E8B72D"/>
<path d="M155.476 91.4584C153.287 91.0164 151.08 90.7774 148.884 90.7283L118.832 119.543L126.564 121.279C126.34 119.166 126.591 116.971 127.376 114.802C130.236 106.902 139.345 101.643 148.831 102.325L155.476 91.4584Z" fill="#E8B72D"/>
<path d="M142.404 124.836L149.776 126.491L148.021 128.146L144.948 131.045C151.117 131 156.976 127.352 158.952 121.892C159.605 120.089 159.765 118.278 159.5 116.567L146.888 113.735C145.376 115.465 144.175 117.44 143.39 119.609C143.002 120.681 142.732 121.756 142.573 122.822C142.473 123.497 142.417 124.17 142.404 124.836Z" fill="#E8B72D"/>
<path d="M139.778 124.246C139.879 122.53 140.234 120.784 140.864 119.042C141.643 116.89 142.784 114.908 144.207 113.133L142.462 112.742L146.101 106.79C144.759 106.828 143.435 107.035 142.166 107.394C137.716 108.651 133.939 111.765 132.429 115.937C131.983 117.169 131.766 118.404 131.759 119.609C131.753 120.612 131.891 121.595 132.162 122.536L139.778 124.246Z" fill="#E8B72D"/>
<path d="M165.895 74.418L163.873 73.1592L157.589 82.3812L165.895 74.418Z" fill="#E8B72D"/>
<path d="M107.464 163.22L109.34 164.628L122.105 152.589L120.888 152.589L114.747 157.449L107.464 163.22Z" fill="#E8B72D"/>
<path d="M143.166 129.656L144.95 131.043L148.021 128.146L147.022 127.986L143.166 129.656Z" fill="#E8B72D"/>
<path d="M173.406 119.69L171.442 118.417L168.586 118.417L169.014 118.704L173.406 119.69Z" fill="#E8B72D"/>
<path d="M146.101 106.79L144.207 105.508L141.881 106.571L142.166 107.394C143.435 107.035 144.759 106.828 146.101 106.79Z" fill="#E8B72D"/>
<path d="M130.313 121.279L132.162 122.536C131.891 121.595 131.753 120.612 131.759 119.609L130.599 119.936L130.313 121.279Z" fill="#E8B72D"/>
<path d="M140.506 123.429L142.404 124.836C142.417 124.17 142.473 123.497 142.573 122.822L142.462 122.536L141.309 122.536L140.506 123.429Z" fill="#E8B72D"/>
<mask id="mask0" mask-type="alpha" maskUnits="userSpaceOnUse" x="107" y="73" width="67" height="91">
<path fill-rule="evenodd" clip-rule="evenodd" d="M150.383 101.367C139.761 98.9821 128.735 104.542 125.525 113.411C122.314 122.28 127.96 131.583 138.582 133.968C143.802 135.14 149.149 134.388 153.614 132.252L159.405 142.339C151.946 145.908 143.071 147.132 134.513 145.21C117.214 141.326 107.332 125.917 112.886 110.573C118.441 95.2284 137.154 86.2412 154.453 90.1255C163.011 92.0472 169.732 96.7727 173.681 102.903L162.006 109.069C159.643 105.399 155.603 102.539 150.383 101.367Z" fill="black"/>
<path d="M147.852 125.143L143.026 129.695C150.205 130.004 164.988 122.255 171.483 118.342L151.906 113.947L147.852 125.143Z" fill="black"/>
<path fill-rule="evenodd" clip-rule="evenodd" d="M144.532 91.709L163.971 73.0706L151.604 93.2969L144.532 91.709ZM133.587 144.924C131.367 144.409 129.35 143.616 128.619 143.283L107.416 163.281L133.587 144.924Z" fill="black"/>
<path d="M153.552 90.111C151.364 89.6691 149.157 89.43 146.96 89.381L116.908 118.195L124.64 119.931C124.416 117.818 124.668 115.623 125.453 113.455C128.313 105.554 137.421 100.295 146.908 100.978L153.552 90.111Z" fill="black"/>
<path d="M140.481 123.488L147.852 125.143L143.024 129.698C149.193 129.652 155.052 126.004 157.028 120.545C157.681 118.742 157.842 116.931 157.576 115.22L144.964 112.388C143.452 114.118 142.252 116.093 141.467 118.261C140.832 120.014 140.513 121.771 140.481 123.488Z" fill="black"/>
<path d="M137.854 122.898C137.955 121.183 138.31 119.436 138.941 117.694C139.72 115.543 140.86 113.56 142.284 111.786L140.538 111.394L144.177 105.443C138.131 105.614 132.446 109.228 130.505 114.589C129.688 116.847 129.642 119.118 130.238 121.188L137.854 122.898Z" fill="black"/>
</mask>
<g mask="url(#mask0)">
<rect x="106.735" y="62.8733" width="80.8311" height="104.606" transform="rotate(7.40998 106.735 62.8733)" fill="white"/>
</g>
<defs>
<filter id="filter0_f" x="36.1587" y="53.5857" width="308.513" height="230.393" filterUnits="userSpaceOnUse" color-interpolation-filters="sRGB">
<feFlood flood-opacity="0" result="BackgroundImageFix"/>
<feBlend mode="normal" in="SourceGraphic" in2="BackgroundImageFix" result="shape"/>
<feGaussianBlur stdDeviation="30" result="effect1_foregroundBlur"/>
</filter>
<linearGradient id="paint0_linear" x1="40.1545" y1="47.0464" x2="184.015" y2="113.087" gradientUnits="userSpaceOnUse">
<stop offset="0.011732" stop-color="#FFD100"/>
<stop offset="1" stop-color="#FFC548"/>
</linearGradient>
<linearGradient id="paint1_linear" x1="94.5697" y1="63.7756" x2="181.906" y2="169.414" gradientUnits="userSpaceOnUse">
<stop stop-color="#E9C000"/>
<stop offset="1" stop-color="#D89200"/>
</linearGradient>
<linearGradient id="paint2_linear" x1="104.33" y1="30.4575" x2="220.329" y2="184.8" gradientUnits="userSpaceOnUse">
<stop stop-color="#FFD600"/>
<stop offset="1" stop-color="#FFA800"/>
</linearGradient>
</defs>
</svg>
