<svg width="141" height="265" viewBox="0 0 141 265" fill="none" xmlns="http://www.w3.org/2000/svg">
<path d="M36 164.186C36 160.77 37.1517 158 38.5725 158H104.428C105.848 158 107 160.77 107 164.186V316.803C107 321.819 104.648 324.75 102.944 321.857L72.9835 270.998C72.0941 269.489 70.9059 269.489 70.0165 270.998L40.056 321.857C38.3519 324.75 36 321.819 36 316.803V164.186Z" fill="url(#paint0_linear)"/>
<path d="M36 105.814C36 109.23 37.1517 112 38.5725 112H104.428C105.848 112 107 109.23 107 105.814V-46.8029C107 -51.8188 104.648 -54.7495 102.944 -51.8569L72.9835 -0.998337C72.0941 0.511383 70.9059 0.511383 70.0165 -0.998337L40.056 -51.8569C38.3519 -54.7495 36 -51.8188 36 -46.8029V105.814Z" fill="url(#paint1_linear)"/>
<path d="M68.5892 66.5788C69.6983 65.6624 71.3017 65.6624 72.4108 66.5788L88.3421 79.7415C88.9457 80.2402 89.7204 80.4832 90.5008 80.4185L111.514 78.6763C112.987 78.5542 114.329 79.522 114.677 80.9574L119.371 100.265C119.566 101.066 120.081 101.752 120.797 102.161L138.644 112.367C139.982 113.132 140.522 114.786 139.895 116.193L131.83 134.278C131.483 135.056 131.483 135.944 131.83 136.722L139.895 154.807C140.522 156.214 139.982 157.868 138.644 158.633L120.797 168.839C120.081 169.248 119.566 169.934 119.371 170.734L114.677 190.043C114.329 191.478 112.987 192.446 111.514 192.324L90.5008 190.581C89.7204 190.517 88.9457 190.76 88.3421 191.258L72.4108 204.421C71.3017 205.338 69.6983 205.338 68.5892 204.421L52.6579 191.258C52.0543 190.76 51.2796 190.517 50.4992 190.581L29.4855 192.324C28.0134 192.446 26.6715 191.478 26.3226 190.043L21.6289 170.734C21.4342 169.934 20.9185 169.248 20.203 168.839L2.35603 158.633C1.01842 157.868 0.477807 156.214 1.10536 154.807L9.17012 136.722C9.51689 135.944 9.5169 135.056 9.17012 134.278L1.10537 116.193C0.477808 114.786 1.01842 113.132 2.35603 112.367L20.203 102.161C20.9185 101.752 21.4342 101.066 21.6289 100.265L26.3226 80.9574C26.6715 79.522 28.0134 78.5542 29.4855 78.6763L50.4992 80.4185C51.2796 80.4832 52.0543 80.2402 52.6579 79.7415L68.5892 66.5788Z" fill="url(#paint2_linear)"/>
<path d="M67.8662 105.829C69.0032 103.745 71.9968 103.745 73.1338 105.829L80.5658 119.457C80.9973 120.248 81.7616 120.803 82.6474 120.969L97.9046 123.826C100.239 124.263 101.164 127.111 99.5323 128.836L88.8684 140.116C88.2493 140.77 87.9574 141.669 88.0733 142.563L90.0707 157.956C90.3763 160.311 87.9545 162.07 85.8092 161.052L71.7865 154.396C70.9724 154.009 70.0276 154.009 69.2135 154.396L55.1908 161.052C53.0455 162.07 50.6237 160.311 50.9293 157.956L52.9267 142.563C53.0426 141.669 52.7507 140.77 52.1316 140.116L41.4677 128.836C39.8362 127.111 40.7613 124.263 43.0954 123.826L58.3526 120.969C59.2384 120.803 60.0027 120.248 60.4342 119.457L67.8662 105.829Z" fill="url(#paint3_linear)"/>
<circle cx="70.5" cy="135.5" r="48" stroke="url(#paint4_linear)" stroke-width="5"/>
<defs>
<linearGradient id="paint0_linear" x1="71.5" y1="140.06" x2="71.5" y2="328.742" gradientUnits="userSpaceOnUse">
<stop stop-color="#B80000"/>
<stop offset="1" stop-color="#FF5C5D"/>
</linearGradient>
<linearGradient id="paint1_linear" x1="71.5" y1="129.94" x2="71.5" y2="-58.7419" gradientUnits="userSpaceOnUse">
<stop stop-color="#B80000"/>
<stop offset="1" stop-color="#FF5C5D"/>
</linearGradient>
<linearGradient id="paint2_linear" x1="70.8976" y1="71.9937" x2="136.512" y2="141.009" gradientUnits="userSpaceOnUse">
<stop stop-color="#FEE802"/>
<stop offset="1" stop-color="#FED602"/>
</linearGradient>
<linearGradient id="paint3_linear" x1="63.8788" y1="105.182" x2="70.5" y2="170" gradientUnits="userSpaceOnUse">
<stop stop-color="#FED602"/>
<stop offset="1" stop-color="#FEB702"/>
</linearGradient>
<linearGradient id="paint4_linear" x1="45.7091" y1="92.3455" x2="121" y2="214.005" gradientUnits="userSpaceOnUse">
<stop stop-color="#FED402"/>
<stop offset="1" stop-color="#FEBC02"/>
</linearGradient>
</defs>
</svg>
